<?xml version="1.0" encoding="utf-8"?>
<!-- Generator: Adobe Illustrator 27.5.0, SVG Export Plug-In . SVG Version: 6.00 Build 0)  -->
<svg version="1.1" xmlns="http://www.w3.org/2000/svg" xmlns:xlink="http://www.w3.org/1999/xlink" x="0px" y="0px"
	 viewBox="0 0 750 500" style="enable-background:new 0 0 750 500;" xml:space="preserve">
<g id="Background_Simple">
	<g>
		<path style="fill:#92E3A9;" d="M476.73,134.709C379.256,91.793,279,34.785,165.763,63.166c-35.11,8.8-67.062,28.971-88.661,57.482
			c-57.753,76.237-53.057,189.958-21.679,272.62c4.095,10.788,9.208,21.211,15.787,30.751c31.847,46.18,85.513,46.647,137.276,31.3
			c43.805-12.988,82.615-26.145,127.865-15.879c25.063,5.686,49.35,13.834,74.321,19.822c33.997,8.153,69.046,13.301,104.452,12.779
			c93.668-1.38,200.665-50.79,208.965-151.554c0.538-6.53,0.633-13.079,0.328-19.595c-1.871-40.057-15.672-79.781-53.925-99.357
			c-38.459-19.682-84.089-26.467-125.228-39.972C521.87,153.882,499.172,144.589,476.73,134.709z"/>
		<path style="opacity:0.7;fill:#FFFFFF;" d="M476.73,134.709C379.256,91.793,279,34.785,165.763,63.166
			c-35.11,8.8-67.062,28.971-88.661,57.482c-57.753,76.237-53.057,189.958-21.679,272.62c4.095,10.788,9.208,21.211,15.787,30.751
			c31.847,46.18,85.513,46.647,137.276,31.3c43.805-12.988,82.615-26.145,127.865-15.879c25.063,5.686,49.35,13.834,74.321,19.822
			c33.997,8.153,69.046,13.301,104.452,12.779c93.668-1.38,200.665-50.79,208.965-151.554c0.538-6.53,0.633-13.079,0.328-19.595
			c-1.871-40.057-15.672-79.781-53.925-99.357c-38.459-19.682-84.089-26.467-125.228-39.972
			C521.87,153.882,499.172,144.589,476.73,134.709z"/>
	</g>
</g>
<g id="Floor">
	<line style="fill:none;stroke:#263238;stroke-miterlimit:10;" x1="39.035" y1="425.152" x2="728.286" y2="425.152"/>
</g>
<g id="Wall">
	<rect x="39.035" y="227.88" style="opacity:0.1;" width="689.251" height="197.272"/>
	<line style="fill:none;stroke:#263238;stroke-miterlimit:10;" x1="39.035" y1="227.88" x2="728.286" y2="227.88"/>
</g>
<g id="Clock">
	<g>
		<circle style="fill:#92E3A9;stroke:#263238;stroke-miterlimit:10;" cx="523.07" cy="136.491" r="22.92"/>
		<circle style="fill:#FFFFFF;stroke:#263238;stroke-miterlimit:10;" cx="523.07" cy="136.491" r="19.604"/>
		<polyline style="fill:none;stroke:#263238;stroke-miterlimit:10;" points="523.07,144.54 523.07,136.491 538.726,136.491 		"/>
		<circle style="fill:#263238;" cx="523.07" cy="136.491" r="1.44"/>
	</g>
</g>
<g id="Vase">
	<g>
		<path style="fill:#92E3A9;stroke:#263238;stroke-miterlimit:10;" d="M393.868,251.016c0,0,1.892-11.874-2.551-18.352
			s-9.164-15.047-9.164-15.047s1.126,13.271,4.197,17.661C389.42,239.668,393.868,251.016,393.868,251.016z"/>
		<path style="fill:none;stroke:#263238;stroke-miterlimit:10;" d="M399.451,227.553c0,0-5.408,7.201-5.408,28.009"/>
		<path style="fill:none;stroke:#263238;stroke-miterlimit:10;" d="M385.61,244.524c0,0,5.811-1.552,8.259,14.011"/>
		<path style="fill:#92E3A9;stroke:#263238;stroke-miterlimit:10;" d="M398.902,267.805v-14.799h-9.049v14.799
			c0,0.863-0.29,1.7-0.825,2.377l0,0c-4.69,5.949-7.241,13.303-7.241,20.879v5.848c0,0.959,0.777,1.736,1.736,1.736h21.709
			c0.959,0,1.736-0.777,1.736-1.736v-5.848c0-7.575-2.551-14.93-7.241-20.879l0,0C399.193,269.505,398.902,268.668,398.902,267.805z
			"/>
		<g>
			<path style="fill:#FFFFFF;stroke:#263238;stroke-miterlimit:10;" d="M384.487,254.119L384.487,254.119
				c-1.239,0-2.244-1.005-2.244-2.244l1.122-7.352h2.244l1.122,7.352C386.732,253.115,385.727,254.119,384.487,254.119z"/>
			<path style="fill:#FFFFFF;stroke:#263238;stroke-miterlimit:10;" d="M384.487,234.309L384.487,234.309
				c1.239,0,2.244,1.005,2.244,2.244l-1.122,7.352h-2.244l-1.122-7.352C382.243,235.313,383.248,234.309,384.487,234.309z"/>
			<path style="fill:#FFFFFF;stroke:#263238;stroke-miterlimit:10;" d="M374.582,244.214L374.582,244.214
				c0-1.24,1.005-2.244,2.244-2.244l7.352,1.122v2.244l-7.352,1.122C375.587,246.458,374.582,245.454,374.582,244.214z"/>
			<path style="fill:#FFFFFF;stroke:#263238;stroke-miterlimit:10;" d="M394.393,244.214L394.393,244.214
				c0,1.239-1.005,2.244-2.244,2.244l-7.352-1.122v-2.244l7.352-1.122C393.388,241.97,394.393,242.975,394.393,244.214z"/>
			<path style="fill:#FFFFFF;stroke:#263238;stroke-miterlimit:10;" d="M377.483,251.218L377.483,251.218
				c-0.876-0.876-0.876-2.297,0-3.174l5.992-4.405l1.587,1.587l-4.405,5.992C379.781,252.095,378.36,252.095,377.483,251.218z"/>
			<path style="fill:#FFFFFF;stroke:#263238;stroke-miterlimit:10;" d="M391.492,237.21L391.492,237.21
				c0.876,0.876,0.876,2.297,0,3.174l-5.992,4.405l-1.587-1.587l4.405-5.992C389.194,236.333,390.615,236.333,391.492,237.21z"/>
			<path style="fill:#FFFFFF;stroke:#263238;stroke-miterlimit:10;" d="M377.483,237.21L377.483,237.21
				c0.876-0.876,2.297-0.876,3.174,0l4.405,5.992l-1.587,1.587l-5.992-4.405C376.607,239.507,376.607,238.086,377.483,237.21z"/>
			<path style="fill:#FFFFFF;stroke:#263238;stroke-miterlimit:10;" d="M391.492,251.218L391.492,251.218
				c-0.876,0.876-2.297,0.876-3.174,0l-4.405-5.992l1.587-1.587l5.992,4.405C392.368,248.921,392.368,250.342,391.492,251.218z"/>
			<path style="fill:#FFFFFF;stroke:#263238;stroke-miterlimit:10;" d="M388.031,244.214c0,1.957-1.586,3.543-3.543,3.543
				s-3.543-1.586-3.543-3.543s1.586-3.544,3.543-3.544S388.031,242.257,388.031,244.214z"/>
		</g>
		<g>
			<path style="fill:#FFFFFF;stroke:#263238;stroke-miterlimit:10;" d="M398.714,235.177L398.714,235.177
				c-0.902,0-1.633-0.731-1.633-1.633l0.816-5.348h1.633l0.816,5.348C400.347,234.446,399.616,235.177,398.714,235.177z"/>
			<path style="fill:#FFFFFF;stroke:#263238;stroke-miterlimit:10;" d="M398.714,220.764L398.714,220.764
				c0.902,0,1.633,0.731,1.633,1.633l-0.816,5.348h-1.633l-0.816-5.348C397.082,221.495,397.813,220.764,398.714,220.764z"/>
			<path style="fill:#FFFFFF;stroke:#263238;stroke-miterlimit:10;" d="M391.508,227.971L391.508,227.971
				c0-0.902,0.731-1.633,1.633-1.633l5.348,0.816v1.633l-5.348,0.816C392.239,229.603,391.508,228.872,391.508,227.971z"/>
			<path style="fill:#FFFFFF;stroke:#263238;stroke-miterlimit:10;" d="M405.921,227.971L405.921,227.971
				c0,0.902-0.731,1.633-1.633,1.633l-5.348-0.816v-1.633l5.348-0.816C405.19,226.338,405.921,227.069,405.921,227.971z"/>
			<path style="fill:#FFFFFF;stroke:#263238;stroke-miterlimit:10;" d="M393.619,233.066L393.619,233.066
				c-0.638-0.638-0.638-1.671,0-2.309l4.359-3.205l1.154,1.155l-3.205,4.359C395.29,233.704,394.257,233.704,393.619,233.066z"/>
			<path style="fill:#FFFFFF;stroke:#263238;stroke-miterlimit:10;" d="M403.81,222.875L403.81,222.875
				c0.638,0.638,0.638,1.671,0,2.309l-4.359,3.205l-1.155-1.154l3.205-4.359C402.139,222.238,403.172,222.238,403.81,222.875z"/>
			<path style="fill:#FFFFFF;stroke:#263238;stroke-miterlimit:10;" d="M393.619,222.875L393.619,222.875
				c0.638-0.638,1.671-0.638,2.309,0l3.205,4.359l-1.154,1.154l-4.359-3.205C392.981,224.546,392.981,223.513,393.619,222.875z"/>
			<path style="fill:#FFFFFF;stroke:#263238;stroke-miterlimit:10;" d="M403.81,233.066L403.81,233.066
				c-0.638,0.638-1.671,0.638-2.309,0l-3.205-4.359l1.155-1.155l4.359,3.205C404.448,231.395,404.448,232.429,403.81,233.066z"/>
			<path style="fill:#FFFFFF;stroke:#263238;stroke-miterlimit:10;" d="M401.292,227.971c0,1.424-1.154,2.578-2.578,2.578
				c-1.424,0-2.578-1.154-2.578-2.578c0-1.424,1.154-2.578,2.578-2.578C400.138,225.393,401.292,226.547,401.292,227.971z"/>
		</g>
		<path style="fill:#92E3A9;stroke:#263238;stroke-miterlimit:10;" d="M394.917,241.223c0,0,0-1.923,4.197-3.497
			c4.197-1.574,9.792-4.197,9.792-4.197s-4.372,4.197-6.645,5.596C399.988,240.524,394.917,241.223,394.917,241.223z"/>
		<g>
			<path style="fill:#FFFFFF;stroke:#263238;stroke-miterlimit:10;" d="M400.539,255.093L400.539,255.093
				c-0.97,0-1.756-0.786-1.756-1.756l0.878-5.752h1.756l0.878,5.752C402.295,254.307,401.509,255.093,400.539,255.093z"/>
			<path style="fill:#FFFFFF;stroke:#263238;stroke-miterlimit:10;" d="M400.539,239.594L400.539,239.594
				c0.97,0,1.756,0.786,1.756,1.756l-0.878,5.752h-1.756l-0.878-5.752C398.783,240.38,399.569,239.594,400.539,239.594z"/>
			<path style="fill:#FFFFFF;stroke:#263238;stroke-miterlimit:10;" d="M392.789,247.344L392.789,247.344
				c0-0.97,0.786-1.756,1.756-1.756l5.752,0.878v1.756l-5.752,0.878C393.575,249.099,392.789,248.313,392.789,247.344z"/>
			<path style="fill:#FFFFFF;stroke:#263238;stroke-miterlimit:10;" d="M408.289,247.344L408.289,247.344
				c0,0.97-0.786,1.756-1.756,1.756l-5.752-0.878v-1.756l5.752-0.878C407.503,245.588,408.289,246.374,408.289,247.344z"/>
			<path style="fill:#FFFFFF;stroke:#263238;stroke-miterlimit:10;" d="M395.059,252.823L395.059,252.823
				c-0.686-0.686-0.686-1.797,0-2.483l4.688-3.446l1.242,1.242l-3.446,4.688C396.857,253.509,395.745,253.509,395.059,252.823z"/>
			<path style="fill:#FFFFFF;stroke:#263238;stroke-miterlimit:10;" d="M406.019,241.864L406.019,241.864
				c0.686,0.686,0.686,1.797,0,2.483l-4.688,3.446l-1.242-1.242l3.446-4.688C404.221,241.178,405.333,241.178,406.019,241.864z"/>
			<path style="fill:#FFFFFF;stroke:#263238;stroke-miterlimit:10;" d="M395.059,241.864L395.059,241.864
				c0.686-0.686,1.797-0.686,2.483,0l3.446,4.688l-1.242,1.242l-4.688-3.446C394.373,243.661,394.373,242.549,395.059,241.864z"/>
			<path style="fill:#FFFFFF;stroke:#263238;stroke-miterlimit:10;" d="M406.019,252.823L406.019,252.823
				c-0.686,0.686-1.797,0.686-2.483,0l-3.446-4.688l1.242-1.242l4.688,3.446C406.704,251.026,406.704,252.138,406.019,252.823z"/>
			<circle style="fill:#FFFFFF;stroke:#263238;stroke-miterlimit:10;" cx="400.539" cy="247.344" r="2.772"/>
		</g>
	</g>
</g>
<g id="Curtain">
	<g>
		<rect x="459.012" y="110.629" style="fill:#92E3A9;stroke:#263238;stroke-miterlimit:10;" width="15.296" height="311.211"/>
		<rect x="462.515" y="110.629" style="fill:#92E3A9;stroke:#263238;stroke-miterlimit:10;" width="8.289" height="311.211"/>
		<path style="fill:#FFFFFF;stroke:#263238;stroke-miterlimit:10;" d="M474.196,114.782H137.627c-2.051,0-3.714-1.663-3.714-3.714
			l0,0c0-2.051,1.663-3.714,3.714-3.714h336.569c2.051,0,3.714,1.663,3.714,3.714l0,0
			C477.91,113.119,476.247,114.782,474.196,114.782z"/>
	</g>
</g>
<g id="Bed">
	<g>
		<rect x="165.751" y="389.022" style="fill:#263238;stroke:#263238;stroke-miterlimit:10;" width="175.253" height="15.596"/>
		<path style="fill:#FFFFFF;stroke:#263238;stroke-miterlimit:10;" d="M322.643,259.477c-4.525-0.173-10.962,0.422-15.711-1.481
			c-11.262-4.512-24.809-7.356-37.227-9.055c-5.354-0.732-10.746-1.026-16.123-0.886c-5.377-0.139-10.768,0.154-16.123,0.886
			c-12.418,1.699-25.965,4.543-37.227,9.055c-4.749,1.903-11.186,1.309-15.711,1.481c-3.541,0.135-6.339,3.042-6.339,6.586v53.779
			h75.399h75.399v-53.779C328.982,262.519,326.184,259.612,322.643,259.477z M209.067,270.067c0,0-12.012,2.473-18.018,2.826
			c-6.006,0.353-4.24-4.593,0-7.419c4.24-2.826,17.312-1.413,22.258-5.653L209.067,270.067z M266.628,263.746
			c-4.332-0.593-8.695-0.83-13.045-0.717c-4.351-0.113-8.713,0.124-13.045,0.717c-6.148,0.841-12.634,2.034-18.833,3.666
			c0.131-1.826,1.013-5.524,5.492-9.437c4.47-0.977,8.99-1.759,13.341-2.355c4.332-0.593,8.695-0.83,13.045-0.717
			c4.351-0.113,8.713,0.124,13.045,0.717c3.366,0.461,6.835,1.036,10.302,1.72c4.662,3.759,5.894,7.404,6.185,9.484
			C277.638,265.493,272.005,264.481,266.628,263.746z M315.41,272.894c-6.006-0.353-18.018-2.826-18.018-2.826l-4.24-10.246
			c4.946,4.24,18.018,2.826,22.258,5.653C319.65,268.301,321.416,273.247,315.41,272.894z"/>
		<path style="fill:#92E3A9;stroke:#263238;stroke-miterlimit:10;" d="M332.087,369.126H175.079l9.42-92.67
			c0-3.62,2.934-6.554,6.554-6.554h125.06c3.62,0,6.554,2.934,6.554,6.554L332.087,369.126z"/>
		<path style="fill:#FFFFFF;stroke:#263238;stroke-miterlimit:10;" d="M344.698,372.985h-5.336v-55.203
			c0-1.473,1.194-2.668,2.668-2.668l0,0c1.473,0,2.668,1.194,2.668,2.668V372.985z"/>
		<path style="fill:#FFFFFF;stroke:#263238;stroke-miterlimit:10;" d="M333.981,334.938h-5.336v-55.203
			c0-1.473,1.194-2.668,2.668-2.668l0,0c1.473,0,2.668,1.194,2.668,2.668V334.938z"/>
		<path style="fill:#FFFFFF;stroke:#263238;stroke-miterlimit:10;" d="M178.58,334.938h-5.336v-55.203
			c0-1.473,1.194-2.668,2.668-2.668l0,0c1.473,0,2.668,1.194,2.668,2.668V334.938z"/>
		<path style="fill:#FFFFFF;stroke:#263238;stroke-miterlimit:10;" d="M168.624,372.985h-5.336v-55.203
			c0-1.473,1.194-2.668,2.668-2.668l0,0c1.473,0,2.668,1.194,2.668,2.668V372.985z"/>
		<path style="fill:#FFFFFF;stroke:#263238;stroke-miterlimit:10;" d="M333.81,314.304c-5.257-0.2-12.734,0.49-18.251-1.721
			c-13.083-5.242-28.821-8.546-43.247-10.519c-6.22-0.851-12.483-1.191-18.73-1.03c-6.246-0.162-12.51,0.179-18.73,1.03
			c-14.426,1.974-30.164,5.277-43.247,10.519c-5.517,2.211-12.994,1.52-18.251,1.721c-4.114,0.157-7.364,3.534-7.364,7.651v62.475
			h87.591h87.591v-62.475C341.174,317.837,337.924,314.461,333.81,314.304z M201.868,326.606c0,0-13.955,2.873-20.932,3.283
			c-6.977,0.411-4.925-5.336,0-8.619c4.925-3.284,20.111-1.642,25.857-6.567L201.868,326.606z M268.737,319.262
			c-5.033-0.689-10.1-0.964-15.155-0.833c-5.054-0.131-10.122,0.145-15.155,0.833c-7.142,0.977-14.677,2.363-21.879,4.259
			c0.152-2.121,1.177-6.417,6.38-10.963c5.193-1.135,10.443-2.044,15.499-2.736c5.033-0.688,10.101-0.964,15.155-0.833
			c5.054-0.131,10.122,0.145,15.155,0.833c3.91,0.535,7.94,1.203,11.968,1.998c5.416,4.367,6.847,8.601,7.185,11.018
			C281.527,321.292,274.984,320.117,268.737,319.262z M325.408,329.89c-6.977-0.41-20.932-3.283-20.932-3.283l-4.925-11.902
			c5.746,4.925,20.932,3.283,25.857,6.567C330.333,324.554,332.385,330.3,325.408,329.89z"/>
		<rect x="165.751" y="373.395" style="fill:#FFFFFF;stroke:#263238;stroke-miterlimit:10;" width="175.253" height="15.596"/>
		<rect x="341.004" y="372.985" style="fill:#FFFFFF;stroke:#263238;stroke-miterlimit:10;" width="4.515" height="16.007"/>
		<rect x="161.441" y="372.985" style="fill:#FFFFFF;stroke:#263238;stroke-miterlimit:10;" width="4.515" height="16.007"/>
		<path style="fill:#263238;stroke:#263238;stroke-miterlimit:10;" d="M334.517,425.152L334.517,425.152
			c-1.866,0-3.378-1.512-3.378-3.378v-14.935c0-1.866,1.513-3.378,3.378-3.378l0,0c1.866,0,3.378,1.512,3.378,3.378v14.935
			C337.895,423.639,336.382,425.152,334.517,425.152z"/>
		<path style="fill:#263238;stroke:#263238;stroke-miterlimit:10;" d="M171.293,425.152L171.293,425.152
			c-1.866,0-3.378-1.512-3.378-3.378v-14.935c0-1.866,1.512-3.378,3.378-3.378l0,0c1.866,0,3.378,1.512,3.378,3.378v14.935
			C174.672,423.639,173.159,425.152,171.293,425.152z"/>
	</g>
</g>
<g id="Furniture">
	<g>
		<path style="fill:#263238;stroke:#263238;stroke-miterlimit:10;" d="M354.47,425.152L354.47,425.152
			c-1.256,0-2.275-1.018-2.275-2.275v-9.023c0-1.256,1.018-2.275,2.275-2.275l0,0c1.256,0,2.274,1.018,2.274,2.275v9.023
			C356.745,424.134,355.727,425.152,354.47,425.152z"/>
		<path style="fill:#263238;stroke:#263238;stroke-miterlimit:10;" d="M435.702,425.152L435.702,425.152
			c-1.256,0-2.275-1.018-2.275-2.275v-9.023c0-1.256,1.018-2.275,2.275-2.275l0,0c1.256,0,2.275,1.018,2.275,2.275v9.023
			C437.976,424.134,436.958,425.152,435.702,425.152z"/>
		<rect x="350.51" y="298.655" style="fill:#FFFFFF;stroke:#263238;stroke-miterlimit:10;" width="89.275" height="116.001"/>
		<rect x="350.51" y="298.655" style="fill:#FFFFFF;stroke:#263238;stroke-miterlimit:10;" width="89.275" height="34.118"/>
		<rect x="350.51" y="298.655" style="fill:#FFFFFF;stroke:#263238;stroke-miterlimit:10;" width="89.275" height="4.549"/>
		<path style="fill:#FFFFFF;stroke:#263238;stroke-miterlimit:10;" d="M408.795,319.126H381.5c-0.628,0-1.137-0.509-1.137-1.137l0,0
			c0-0.628,0.509-1.137,1.137-1.137h27.294c0.628,0,1.137,0.509,1.137,1.137l0,0C409.932,318.617,409.423,319.126,408.795,319.126z"
			/>
		<path style="fill:#FFFFFF;stroke:#263238;stroke-miterlimit:10;" d="M426.351,379.969v-27.294c0-0.628,0.509-1.137,1.137-1.137
			l0,0c0.628,0,1.137,0.509,1.137,1.137v27.294c0,0.628-0.509,1.137-1.137,1.137l0,0
			C426.861,381.107,426.351,380.598,426.351,379.969z"/>
	</g>
</g>
<g id="Chair">
	<g>
		<path style="fill:#92E3A9;stroke:#263238;stroke-miterlimit:10;" d="M127.549,368.209c-2.328-6.041-7.649-10.508-13.387-9.746
			H58.607c-2.2,0-3.983,1.783-3.983,3.983l0,0c0,2.199,1.783,3.983,3.983,3.983h56.652c0,0,0,0,3.912,1.304
			c3.912,1.304,2.608,7.824,7.172,8.476c4.564,0.652,4.564-1.956,4.564-1.956S127.573,368.272,127.549,368.209z"/>
		<g>
			<path style="fill:#92E3A9;stroke:#263238;stroke-miterlimit:10;" d="M59.584,350.129c-0.14,0-0.281-0.006-0.422-0.02
				c-2.458-0.229-4.264-2.41-4.034-4.868c2.355-25.111-7.656-40.321-7.757-40.472c-1.375-2.042-0.843-4.819,1.194-6.201
				c2.038-1.382,4.804-0.866,6.194,1.167c0.489,0.715,11.944,17.829,9.271,46.341C63.812,348.392,61.864,350.129,59.584,350.129z"/>
		</g>
		<g>
			<path style="fill:#FFFFFF;stroke:#263238;stroke-miterlimit:10;" d="M110.412,425.152H62.313c-1.105,0-2-0.895-2-2l0,0
				c0-1.105,0.895-2,2-2h48.129c5.042,0,9.917-2.257,12.866-6.347c2.804-3.888,3.627-8.74,2.345-13.247l-15.139-53.246
				c-1.298-4.566-4.085-8.514-7.998-11.29c-3.623-2.569-8.028-3.801-12.47-3.801H55.793c-1.105,0-2-0.895-2-2l0,0
				c0-1.104,0.895-2,2-2h34.305c5.004,0,9.961,1.343,14.124,4.12c4.984,3.324,8.527,8.201,10.141,13.877l15.139,53.246
				c1.579,5.553,0.622,11.522-2.725,16.366C123.099,422.155,116.883,425.152,110.412,425.152z"/>
		</g>
	</g>
</g>
<g id="Device_2">
	<g>
		<line style="fill:none;stroke:#263238;stroke-miterlimit:10;" x1="534.074" y1="251.524" x2="534.074" y2="302.404"/>
		<line style="fill:none;stroke:#263238;stroke-miterlimit:10;" x1="539.958" y1="251.524" x2="539.958" y2="302.404"/>
		<rect x="519.211" y="252.783" style="fill:#FFFFFF;stroke:#263238;stroke-miterlimit:10;" width="4.575" height="160.976"/>
		<rect x="512.348" y="251.068" style="fill:#FFFFFF;stroke:#263238;stroke-miterlimit:10;" width="18.3" height="4.575"/>
		<rect x="532.097" y="250.929" style="fill:#FFFFFF;stroke:#263238;stroke-miterlimit:10;" width="4.246" height="4.867"/>
		<rect x="537.91" y="250.929" style="fill:#FFFFFF;stroke:#263238;stroke-miterlimit:10;" width="4.246" height="4.867"/>
		<g>
			<path style="fill:#FFFFFF;stroke:#263238;stroke-miterlimit:10;" d="M543.018,251.068h-43.039c-3.416,0-6.185-2.769-6.185-6.185
				v-36.431c0-3.416,2.769-6.185,6.185-6.185h43.039c3.416,0,6.185,2.769,6.185,6.185v36.431
				C549.202,248.299,546.433,251.068,543.018,251.068z"/>
			<path style="fill:#263238;stroke:#263238;stroke-miterlimit:10;" d="M539.73,238.359h-36.973c-2.424,0-4.389-1.965-4.389-4.389
				v-21.723c0-2.424,1.965-4.389,4.389-4.389h36.973c2.424,0,4.389,1.965,4.389,4.389v21.723
				C544.119,236.394,542.154,238.359,539.73,238.359z"/>
			<path style="fill:#FFFFFF;stroke:#263238;stroke-miterlimit:10;" d="M535.477,244.459c0,1.404-1.138,2.542-2.542,2.542
				s-2.542-1.138-2.542-2.542c0-1.404,1.138-2.542,2.542-2.542S535.477,243.055,535.477,244.459z"/>
			<path style="fill:#FFFFFF;stroke:#263238;stroke-miterlimit:10;" d="M526.836,244.459c0,1.404-1.138,2.542-2.542,2.542
				c-1.404,0-2.542-1.138-2.542-2.542c0-1.404,1.138-2.542,2.542-2.542C525.698,241.918,526.836,243.055,526.836,244.459z"/>
		</g>
		<g>
			<ellipse style="fill:none;stroke:#263238;stroke-miterlimit:10;" cx="539.612" cy="322.133" rx="11.422" ry="15.229"/>
			<ellipse style="fill:none;stroke:#263238;stroke-miterlimit:10;" cx="538.106" cy="320.028" rx="9.916" ry="13.124"/>
			<ellipse style="fill:none;stroke:#263238;stroke-miterlimit:10;" cx="542.606" cy="320.028" rx="9.916" ry="13.124"/>
		</g>
		<rect x="494.477" y="302.716" style="fill:#263238;stroke:#263238;stroke-miterlimit:10;" width="54.367" height="3.042"/>
		<rect x="481.171" y="305.138" style="fill:#FFFFFF;stroke:#263238;stroke-miterlimit:10;" width="80.22" height="3.802"/>
		<path style="fill:#263238;stroke:#263238;stroke-miterlimit:10;" d="M489.02,425.152L489.02,425.152
			c-1.256,0-2.274-1.018-2.274-2.275v-9.023c0-1.256,1.018-2.275,2.274-2.275l0,0c1.256,0,2.275,1.018,2.275,2.275v9.023
			C491.295,424.134,490.276,425.152,489.02,425.152z"/>
		<path style="fill:#263238;stroke:#263238;stroke-miterlimit:10;" d="M509.677,425.152L509.677,425.152
			c-1.256,0-2.275-1.018-2.275-2.275v-9.023c0-1.256,1.018-2.275,2.275-2.275l0,0c1.256,0,2.275,1.018,2.275,2.275v9.023
			C511.952,424.134,510.934,425.152,509.677,425.152z"/>
		<path style="fill:#263238;stroke:#263238;stroke-miterlimit:10;" d="M554.337,425.152L554.337,425.152
			c-1.256,0-2.274-1.018-2.274-2.275v-9.023c0-1.256,1.018-2.275,2.274-2.275l0,0c1.256,0,2.275,1.018,2.275,2.275v9.023
			C556.612,424.134,555.594,425.152,554.337,425.152z"/>
		<path style="fill:#263238;stroke:#263238;stroke-miterlimit:10;" d="M537.359,425.152L537.359,425.152
			c-1.256,0-2.275-1.018-2.275-2.275v-9.023c0-1.256,1.018-2.275,2.275-2.275l0,0c1.256,0,2.275,1.018,2.275,2.275v9.023
			C539.633,424.134,538.615,425.152,537.359,425.152z"/>
		<polygon style="fill:#FFFFFF;stroke:#263238;stroke-miterlimit:10;" points="521.243,410.226 483.833,410.226 483.833,414.255 
			521.243,414.255 558.654,414.255 558.654,410.226 		"/>
		<rect x="500.524" y="410.226" style="fill:#FFFFFF;stroke:#263238;stroke-miterlimit:10;" width="41.727" height="4.029"/>
	</g>
</g>
<g id="Device_1">
	<g>
		<rect x="145.462" y="178.949" style="fill:#FFFFFF;stroke:#263238;stroke-miterlimit:10;" width="215.387" height="14.359"/>
		<rect x="215.528" y="187.923" style="fill:#FFFFFF;stroke:#263238;stroke-miterlimit:10;" width="75.254" height="3.479"/>
		<rect x="145.462" y="171.77" style="fill:#FFFFFF;stroke:#263238;stroke-miterlimit:10;" width="215.387" height="14.359"/>
		<rect x="145.462" y="174.275" style="fill:#FFFFFF;stroke:#263238;stroke-miterlimit:10;" width="215.387" height="9.349"/>
		<g>
			<circle style="fill:#FFFFFF;stroke:#263238;stroke-miterlimit:10;" cx="314.217" cy="179.16" r="2.937"/>
			<circle style="fill:#FFFFFF;stroke:#263238;stroke-miterlimit:10;" cx="289.049" cy="179.16" r="2.937"/>
			<circle style="fill:#FFFFFF;stroke:#263238;stroke-miterlimit:10;" cx="336.735" cy="179.16" r="2.937"/>
		</g>
		<rect x="331.361" y="187.763" style="fill:#92E3A9;stroke:#263238;stroke-miterlimit:10;" width="17.367" height="3.544"/>
		<rect x="159.632" y="187.763" style="fill:#92E3A9;stroke:#263238;stroke-miterlimit:10;" width="17.367" height="3.544"/>
	</g>
</g>
<g id="Door">
	<g>
		<rect x="576.146" y="113.001" style="fill:#FFFFFF;stroke:#263238;stroke-miterlimit:10;" width="128.118" height="312.289"/>
		<rect x="579.334" y="118.384" style="fill:#FFFFFF;stroke:#263238;stroke-miterlimit:10;" width="121.743" height="301.521"/>
		<rect x="585.217" y="124.435" style="fill:#263238;stroke:#263238;stroke-miterlimit:10;" width="109.976" height="161.748"/>
		<rect x="585.217" y="293.925" style="fill:#92E3A9;stroke:#263238;stroke-miterlimit:10;" width="109.976" height="118.913"/>
		<rect x="582.151" y="225.104" style="fill:#FFFFFF;stroke:#263238;stroke-miterlimit:10;" width="13.346" height="42.039"/>
	</g>
</g>
</svg>
