<?xml version="1.0" encoding="utf-8"?>
<!-- Generator: Adobe Illustrator 27.5.0, SVG Export Plug-In . SVG Version: 6.00 Build 0)  -->
<svg version="1.1" xmlns="http://www.w3.org/2000/svg" xmlns:xlink="http://www.w3.org/1999/xlink" x="0px" y="0px"
	 viewBox="0 0 500 500" style="enable-background:new 0 0 500 500;" xml:space="preserve">
<g id="BACKGROUND">
	<rect style="fill:#FFFFFF;" width="500" height="500"/>
</g>
<g id="OBJECTS">
	<g>
		<g>
			<path style="fill:#E7EAE2;" d="M430.134,286.355c-0.21-3.773-0.742-7.666-2.734-10.878c-2.778-4.48-7.867-6.873-11.869-10.304
				c-10.334-8.861-12.667-24.122-10.853-37.613c1.814-13.492,7.001-26.342,8.997-39.808c1.996-13.466,0.106-28.705-9.862-37.976
				c-8.013-7.452-19.741-9.578-30.661-8.873c-10.92,0.705-21.518,3.869-32.325,5.593c-20.371,3.25-41.503,1.057-60.914-5.846
				c-18.338-6.521-31.119-20.65-48.263-28.144c-24.943-10.903-57.188-0.771-71.412,22.44
				c-16.824,27.452-10.019,67.749-34.525,88.633c-9.129,7.78-21.299,11.357-30.249,19.341
				c-16.263,14.508-17.658,40.465-9.173,60.539c8.485,20.074,24.76,35.645,40.606,50.609l148.002,33.288
				c35.011,4.697,72.156,1.995,103.063-15.109S432.102,321.625,430.134,286.355z"/>
			<path style="fill:#E7EAE2;" d="M297.554,130.601c7.848,2.766,16.314,3.412,24.624,2.989c3.641-0.185,7.391-0.607,10.568-2.394
				c3.177-1.787,5.659-5.253,5.271-8.878c-0.389-3.624-3.414-6.395-6.552-8.252c-6.883-4.073-14.998-5.413-22.915-6.551
				c-7.758-1.116-23.464-3.439-26.891,6.526C278.667,122.745,291.214,128.366,297.554,130.601z"/>
			<path style="fill:#E7EAE2;" d="M419.205,231.12c1.797-2.731,4.337-5.307,7.578-5.73c2.815-0.367,5.782,1.14,7.146,3.63
				c0.951,1.737,1.135,3.789,1.103,5.769c-0.101,6.224-4.162,18.16-12.482,16.795C412.952,250.008,415.567,236.649,419.205,231.12z"
				/>
			<path style="fill:#E7EAE2;" d="M107.75,216.133c-4.214,3.055-10.139,5.32-14.426,2.368c-4.231-2.914-4.297-9.145-3.057-14.132
				c2.412-9.702,18.287-37.8,31.159-25.972C133.008,189.041,116.584,209.728,107.75,216.133z"/>
		</g>
		<g>
			<g>
				<g>
					<path style="fill:#5E9DA6;" d="M121.509,291.831c-0.004,15.008,10.29,50.206,14.226,63.113c0.418-0.091,0.873-0.08,1.359,0.114
						c2.226,0.891,4.75,10.389,4.75,10.389v-30.723C137.093,314.391,121.509,291.831,121.509,291.831z"/>
					
						<rect x="132.199" y="307.811" transform="matrix(0.9499 -0.3127 0.3127 0.9499 -95.4516 57.8687)" style="fill:#FFFFFF;" width="1.031" height="37.501"/>
					<path style="fill:#5E9DA6;" d="M84.92,350.89c13.85,44.278,56.923,40.13,56.923,40.13v-11.557
						C135.305,370.302,84.92,350.89,84.92,350.89z"/>
					<g>
						<path style="fill:#FFFFFF;" d="M130.25,382.029c-17.793-5.316-37.627-23.292-37.825-23.473l0.694-0.761
							c0.197,0.179,19.861,17.999,37.426,23.246L130.25,382.029z"/>
						<path style="fill:#FFFFFF;" d="M111.754,378.321l-0.012-1.03c2.236-0.027,4.51-0.494,6.573-1.35l0.394,0.952
							C116.526,377.797,114.121,378.292,111.754,378.321z"/>
						<path style="fill:#FFFFFF;" d="M113.011,373.773c-0.287-1.528-0.471-3.092-0.547-4.646l1.029-0.05
							c0.074,1.507,0.252,3.023,0.53,4.508L113.011,373.773z"/>
						
							<rect x="106.926" y="368.817" transform="matrix(0.0402 -0.9992 0.9992 0.0402 -267.959 463.8095)" style="fill:#FFFFFF;" width="1.031" height="5.13"/>
						<path style="fill:#FFFFFF;" d="M105.019,368.213c-0.049-1.16-0.172-2.329-0.365-3.473l1.016-0.171
							c0.2,1.186,0.327,2.398,0.378,3.6L105.019,368.213z"/>
						<path style="fill:#FFFFFF;" d="M98.33,367.086l-0.199-1.01c1.455-0.288,2.948-0.508,4.44-0.655l0.101,1.026
							C101.214,366.59,99.753,366.806,98.33,367.086z"/>
						<path style="fill:#FFFFFF;" d="M97.577,363.105c-0.264-1.091-0.464-2.205-0.595-3.315l1.023-0.121
							c0.126,1.068,0.318,2.143,0.573,3.192L97.577,363.105z"/>
						<path style="fill:#FFFFFF;" d="M93.973,361.84l-0.656-0.795c0.556-0.459,1.175-0.834,1.839-1.116l0.402,0.948
							C94.986,361.121,94.452,361.445,93.973,361.84z"/>
					</g>
					<path style="fill:#77DBD3;" d="M138.76,387.684c-6.665-1.141-12.911-4.593-17.422-9.629c-0.516-0.576-1.023-1.195-1.249-1.935
						c-0.226-0.74-0.109-1.635,0.474-2.143c0.353-0.309,0.825-0.439,1.283-0.542c1.446-0.325,2.933-0.467,4.415-0.421
						c-4.727-2.687-9.153-5.904-12.843-9.897c-0.96-1.039-1.897-2.146-2.398-3.469c-0.279-0.736-0.41-1.582-0.082-2.298
						c0.344-0.753,1.141-1.22,1.953-1.381c0.812-0.161,1.651-0.063,2.473,0.036c-4.941-4.708-9.585-10.777-12.853-16.769
						c-0.749-1.372-1.43-3.139-0.509-4.402c0.943-1.294,2.884-1.145,4.459-0.86c0,0-18.05-25.371-14.785-30.269
						c3.265-4.898,19.888,25.825,19.888,25.825s-0.148-6.827,2.672-6.382c2.82,0.445,11.28,22.282,11.28,22.282
						s-0.148-5.065,2.523-4.026c2.672,1.039,5.195,15.584,5.195,15.584s1.633-2.82,3.859-1.93c2.226,0.891,4.75,10.389,4.75,10.389
						v22.236H138.76z"/>
					<g>
						<path style="fill:#FFFFFF;" d="M139.786,380.138c-11.889-17.174-28.489-43.095-28.655-43.354l0.867-0.555
							c0.166,0.26,16.756,26.165,28.635,43.324L139.786,380.138z"/>
						
							<rect x="133.204" y="365.831" transform="matrix(1 -0.0023 0.0023 1 -0.8311 0.303)" style="fill:#FFFFFF;" width="1.03" height="4.471"/>
						<path style="fill:#FFFFFF;" d="M136.897,375.632c-2.009-0.165-3.995-0.592-5.901-1.267l0.344-0.972
							c1.823,0.646,3.721,1.054,5.641,1.212L136.897,375.632z"/>
						<path style="fill:#FFFFFF;" d="M130.397,365.696c-1.753-0.004-3.526-0.069-5.273-0.194l0.073-1.028
							c1.723,0.124,3.473,0.188,5.201,0.192L130.397,365.696z"/>
						<path style="fill:#FFFFFF;" d="M126.993,359.368l-1.018-0.157c0.204-1.328,0.233-2.677,0.086-4.01l1.024-0.113
							C127.242,356.51,127.212,357.95,126.993,359.368z"/>
						
							<rect x="120.284" y="351.225" transform="matrix(0.2266 -0.974 0.974 0.2266 -250.9456 391.0911)" style="fill:#FFFFFF;" width="1.031" height="4.684"/>
						
							<rect x="119.467" y="344.66" transform="matrix(0.9963 -0.0861 0.0861 0.9963 -29.4385 11.616)" style="fill:#FFFFFF;" width="1.03" height="5.044"/>
						
							<rect x="113.958" y="341.839" transform="matrix(0.1088 -0.9941 0.9941 0.1088 -239.751 420.2144)" style="fill:#FFFFFF;" width="1.03" height="3.95"/>
						<path style="fill:#FFFFFF;" d="M114.312,339.78l-0.932-0.439c0.531-1.126,0.954-2.308,1.257-3.516l0.999,0.251
							C115.317,337.348,114.871,338.594,114.312,339.78z"/>
					</g>
				</g>
				<g>
					<g>
						<path style="fill:#5E718C;" d="M357.091,388.883l-0.863-1.008c0.133-0.114,13.312-11.773,13.001-40.436
							c-0.279-25.613,6.381-57.011,6.448-57.325l1.298,0.277c-0.067,0.313-6.697,31.57-6.419,57.032
							C370.874,376.76,357.653,388.403,357.091,388.883z"/>
						<path style="fill:#5E9DA6;" d="M366.881,370.211c0,0-9.508-9.941-6.663-16.521
							C363.063,347.111,366.881,370.211,366.881,370.211z"/>
						<path style="fill:#5E9DA6;" d="M369.439,357.388c0.025-0.239,7.55-11.663,10.435-8.048
							C382.76,352.955,369.439,357.388,369.439,357.388z"/>
						<path style="fill:#77DBD3;" d="M369.905,343.234c0,0-7.061-3.286-6.37-8.152C364.226,330.217,368.454,334.359,369.905,343.234
							z"/>
						<path style="fill:#77DBD3;" d="M370.456,331.527c0.043-0.574,4.9-9.581,8.495-6.754
							C382.546,327.6,370.456,331.527,370.456,331.527z"/>
						<path style="fill:#5E9DA6;" d="M371.626,319.468c0,0-6.261-1.086-5.514-5.221
							C366.858,310.111,371.626,319.468,371.626,319.468z"/>
						<path style="fill:#5E9DA6;" d="M373.064,308.748c0,0,4.176-6.932,6.925-4.041
							C382.738,307.599,373.064,308.748,373.064,308.748z"/>
						<path style="fill:#77DBD3;" d="M374.242,301.384c0,0-7.203-1.542-5.119-5.477
							C371.149,292.082,374.242,301.384,374.242,301.384z"/>
						<path style="fill:#5E9DA6;" d="M372.763,289.737c-0.573-0.792-0.865-1.767-0.924-2.743c-0.036-0.594,0.026-1.233,0.398-1.697
							c0.421-0.525,1.183-0.706,1.833-0.532c0.65,0.174,1.188,0.657,1.541,1.231c0.353,0.573,0.539,1.234,0.667,1.895
							c0.179,0.923,0.763,3.337-0.442,3.824C374.817,292.126,373.286,290.461,372.763,289.737z"/>
						<path style="fill:#77DBD3;" d="M381.089,289.132c0.491,0.035,0.993,0.116,1.419,0.364c0.425,0.249,0.763,0.694,0.767,1.187
							c0.006,0.69-0.612,1.226-1.241,1.507c-1.258,0.562-4.462,0.979-5.134-0.728C376.132,289.513,379.919,289.05,381.089,289.132z"
							/>
					</g>
					<path style="fill:#77DBD3;" d="M356.927,388.322c5.241-4.792,9.334-10.694,13.098-16.715c0.49-0.783,1.197-1.678,2.108-1.528
						c0.599,0.098,1.037,0.657,1.184,1.245c0.147,0.589,0.061,1.207-0.026,1.807c2.56-6.291,6.991-11.359,11.519-16.421
						c0.762-0.851,1.64-1.756,2.777-1.856c1.138-0.099,2.343,1.195,1.716,2.149c4.505-7.079,10.02-13.947,16.309-19.503
						c1.295-1.145,2.653-2.27,4.257-2.915c-0.481,5.498-3.35,10.746-7.72,14.118c0.434-0.421,1.287-0.851,1.878-0.982
						c0.59-0.131,1.325,0.193,1.404,0.793c0.037,0.281-0.072,0.559-0.195,0.814c-0.452,0.933-1.118,1.744-1.785,2.538
						c-3.831,4.567-7.89,8.943-12.156,13.105c0.743-0.282,1.499-0.608,2.294-0.602c0.795,0.006,1.639,0.369,1.988,1.084
						c0.547,1.122-0.325,2.409-1.24,3.258c-4.426,4.108-10.684,5.409-16.149,7.979c0.754-0.186,1.542,0.564,1.701,1.324
						c0.159,0.76-0.139,1.544-0.536,2.212c-1.461,2.45-4.172,3.845-6.817,4.911C367.584,387.13,362.264,388.311,356.927,388.322z"/>
					<path style="fill:#5E718C;" d="M435.229,359.876l-0.821-1.042l-12.159,9.597c-0.437-1.719-0.674-3.482-0.68-5.261l-1.327,0.004
						c0.006,2.084,0.309,4.148,0.874,6.151l-6.354,5.015c-0.092-0.004-0.182-0.017-0.274-0.017l-0.001,0.235l-1.84,1.452
						c-0.512,0.404-1.037,0.784-1.564,1.164l0.402-6.725l-1.324-0.08l-0.451,7.55l0.281,0.017
						c-3.289,2.228-6.809,4.013-10.423,5.419c0.716-2.183,1.514-4.347,2.439-6.438l-1.213-0.536
						c-1.086,2.452-2.023,4.995-2.822,7.561c-5.183,1.853-10.491,2.986-15.503,3.648c1.4-2.604,3.272-4.987,5.507-6.909
						l-0.865-1.005c-2.595,2.232-4.757,5.038-6.266,8.117c-13.028,1.485-23.627-0.095-23.817-0.125l-0.205,1.311
						c0.131,0.021,5.159,0.775,12.54,0.775c0.291,0,0.603-0.007,0.901-0.01c0.606,0.79,1.072,1.763,1.524,2.706
						c0.797,1.665,1.622,3.388,3.292,4.385l0.682-1.137c-1.328-0.794-2.031-2.265-2.778-3.822c-0.348-0.726-0.732-1.453-1.165-2.151
						c4.751-0.108,10.259-0.553,15.966-1.659c2.394,2.267,5.049,4.263,7.901,5.924l0.669-1.145
						c-2.496-1.454-4.826-3.181-6.966-5.117c8.296-1.781,16.889-4.998,24.08-10.674l1.718-1.356
						c0.885,0.092,1.768,0.325,2.691,0.575c1.209,0.328,2.456,0.665,3.76,0.665c0.087,0,0.175-0.001,0.262-0.004l-0.047-1.327
						c-1.176,0.039-2.377-0.276-3.628-0.614c-0.534-0.145-1.078-0.287-1.629-0.406l9.218-7.275c1.241,0.866,2.427,1.816,3.504,2.877
						l0.93-0.946c-1.036-1.02-2.173-1.934-3.354-2.784L435.229,359.876z"/>
					<g>
						<path style="fill:#77DBD3;" d="M372.185,393.41c-0.093,1.933,1.054,3.759,2.562,4.972c1.508,1.213,3.351,1.92,5.16,2.608
							c-0.249-0.932-0.503-1.838-0.752-2.77c-0.186-0.695-0.376-1.402-0.749-2.018c-0.285-0.472-0.669-0.876-1.068-1.257
							c-0.63-0.601-1.319-1.162-2.12-1.502C374.417,393.103,372.996,393.091,372.185,393.41z"/>
						<path style="fill:#77DBD3;" d="M383.707,383.997c-0.54-1.518-0.185-3.266,0.705-4.608c0.891-1.343,2.264-2.311,3.742-2.954
							s3.066-0.986,4.648-1.288c-0.137,2.106-1.542,4.093-3.15,5.46C388.043,381.973,385.63,383.127,383.707,383.997z"/>
						<path style="fill:#5E9DA6;" d="M392.137,391.237c-0.203,0.841,0.215,1.706,0.725,2.404c1.199,1.641,2.963,2.823,4.878,3.501
							c1.915,0.678,3.978,0.874,6.007,0.773c-1.051-1.686-2.218-3.277-3.731-4.564C397.994,391.632,394.772,390.921,392.137,391.237
							z"/>
						<path style="fill:#5E9DA6;" d="M399.26,380.69c-0.479-1.965-0.209-4.071,0.56-5.941c0.769-1.871,2.016-3.518,3.465-4.929
							c0.845,0.999,1.238,2.421,1.196,3.729c-0.042,1.308-0.484,2.581-1.128,3.72C402.531,378.722,400.875,380.267,399.26,380.69z"
							/>
						<path style="fill:#77DBD3;" d="M410.493,374.203c-0.85-0.314-1.3-1.254-1.461-2.146c-0.261-1.449,0.02-2.966,0.64-4.302
							c0.62-1.336,1.565-2.501,2.635-3.513c0.703,1.658,1.222,3.517,1,5.305C413.087,371.335,412.061,373.317,410.493,374.203z"/>
						<path style="fill:#5E9DA6;" d="M420.831,365.829c-0.422-0.145-0.751-0.486-0.991-0.861c-0.642-1.001-0.739-2.288-0.441-3.44
							c0.298-1.151,0.959-2.181,1.735-3.082c0.363,0.119,0.626,0.413,0.825,0.739c0.632,1.036,0.903,2.288,0.755,3.493
							C422.566,363.883,421.695,364.977,420.831,365.829z"/>
						<path style="fill:#5E9DA6;" d="M428.018,368.428c-0.106,0.756,0.269,1.504,0.759,2.089c0.831,0.994,2.028,1.675,3.307,1.882
							c-0.144-0.323-0.166-0.688-0.192-1.04c-0.071-0.97-0.334-1.966-0.98-2.694C430.266,367.937,428.909,368.036,428.018,368.428z"
							/>
						<path style="fill:#77DBD3;" d="M429.82,363.087c0.782-2.143,2.464-3.891,4.453-5.009c1.988-1.119,4.268-1.645,6.544-1.809
							c-0.371,2.282-1.806,4.323-3.751,5.573C435.12,363.092,432.049,363.697,429.82,363.087z"/>
						<path style="fill:#77DBD3;" d="M418.273,375.854c1.114,1.378,2.725,2.344,4.465,2.679c1.596,0.307,3.241,0.095,4.853-0.118
							c-0.76-1.764-2.315-3.26-4.197-3.642c-0.986-0.2-2.008-0.092-3.004,0.052C419.571,374.942,418.833,375.245,418.273,375.854z"
							/>
					</g>
					<path style="fill:#5E9DA6;" d="M384.81,356.71c0.762-0.851,1.64-1.756,2.777-1.856c1.138-0.1,2.343,1.195,1.716,2.149
						c1.634-2.568,3.406-5.106,5.294-7.566c3.019-12.914,6.351-37.301,6.351-37.301c-11.762,19.401-17.365,40.199-19.194,48.05
						C382.755,359.018,383.779,357.863,384.81,356.71z"/>
					<path style="fill:#FFFFFF;" d="M389.944,350.508l-0.994-0.274c0.037-0.135,3.733-13.543,5.913-19.708l0.972,0.344
						C393.667,337.001,389.98,350.373,389.944,350.508z"/>
					<path style="fill:#5E9DA6;" d="M419.665,352.164c-3.713-0.379-7.46-0.631-11.174-0.261c-2.111,0.21-4.213,0.639-6.216,1.329
						c-3.486,4.072-7.144,7.996-10.981,11.739c0.743-0.282,1.499-0.608,2.294-0.602c0.795,0.006,1.639,0.369,1.988,1.083
						c0.113,0.231,0.153,0.47,0.157,0.71C404.52,363.115,412.749,358.312,419.665,352.164z"/>
				</g>
			</g>
			<g>
				<g>
					<path style="fill:#454966;" d="M351.641,241.378H148.828c-3.858,0-6.985,3.127-6.985,6.985v140.441h216.783V248.363
						C358.626,244.505,355.499,241.378,351.641,241.378z"/>
					<path style="fill:#F2EBEB;" d="M348.809,247.133H151.66c-2.117,0-3.833,1.716-3.833,3.833v128.198
						c0,2.117,1.716,3.833,3.833,3.833h197.15c2.117,0,3.833-1.716,3.833-3.833V250.966
						C352.642,248.849,350.926,247.133,348.809,247.133z"/>
					<path style="fill:#D0DCEA;" d="M358.378,388.804H142.09l-31.221,49.93c-0.947,1.514-1.448,3.263-1.448,5.048v7.011
						c0,1.093,0.886,1.979,1.979,1.979h277.669c1.093,0,1.979-0.886,1.979-1.979v-7.011c0-1.785-0.502-3.534-1.448-5.048
						L358.378,388.804z"/>
					<path style="fill:#B5BCCA;" d="M109.421,443.782v7.011c0,1.093,0.886,1.979,1.979,1.979h277.669
						c1.093,0,1.979-0.886,1.979-1.979v-7.011c0-0.335-0.035-0.667-0.07-0.998H109.491
						C109.456,443.116,109.421,443.447,109.421,443.782z"/>
					<path style="fill:#B5BCCA;" d="M276.73,439.488h-52.991c-1.005,0-1.724-0.971-1.432-1.932l3.069-10.078
						c0.192-0.63,0.773-1.061,1.432-1.061h46.854c0.659,0,1.24,0.431,1.432,1.061l3.069,10.078
						C278.454,438.517,277.735,439.488,276.73,439.488z"/>
					<g>
						<polygon style="fill:#454966;" points="293.739,396.546 306.356,396.546 305.056,392.549 292.76,392.549 						"/>
						<polygon style="fill:#454966;" points="259.789,398.306 260.588,405.034 275.613,405.034 274.646,398.306 						"/>
						<polygon style="fill:#454966;" points="309.458,396.546 323.415,396.546 321.942,392.549 308.158,392.549 						"/>
						<polygon style="fill:#454966;" points="259.581,396.546 274.393,396.546 273.818,392.549 259.106,392.549 						"/>
						<polygon style="fill:#454966;" points="277.495,396.546 290.637,396.546 289.659,392.549 276.92,392.549 						"/>
						<polygon style="fill:#454966;" points="276.885,413.879 275.866,406.794 260.796,406.794 261.637,413.879 						"/>
						<polygon style="fill:#454966;" points="224.024,413.879 238.823,413.879 239.664,406.794 225.207,406.794 						"/>
						<polygon style="fill:#454966;" points="240.671,398.306 226.625,398.306 225.501,405.034 239.873,405.034 						"/>
						<polygon style="fill:#454966;" points="241.354,392.549 227.587,392.549 226.919,396.546 240.88,396.546 						"/>
						<polygon style="fill:#454966;" points="210.837,396.546 223.817,396.546 224.485,392.549 211.815,392.549 						"/>
						<polygon style="fill:#454966;" points="243.772,398.306 242.974,405.034 257.486,405.034 256.688,398.306 						"/>
						<polygon style="fill:#454966;" points="243.981,396.546 256.479,396.546 256.005,392.549 244.455,392.549 						"/>
						<polygon style="fill:#454966;" points="241.925,413.879 258.535,413.879 257.695,406.794 242.765,406.794 						"/>
						<polygon style="fill:#454966;" points="294.88,413.879 293.146,406.794 278.968,406.794 279.987,413.879 						"/>
						<polygon style="fill:#454966;" points="327.165,398.306 329.644,405.034 343.547,405.034 340.454,398.306 						"/>
						<polygon style="fill:#454966;" points="346.648,405.034 359.543,405.034 355.741,398.306 343.555,398.306 						"/>
						<polygon style="fill:#454966;" points="360.537,406.794 344.356,406.794 341.289,406.794 330.292,406.794 332.903,413.879 
							344.545,413.879 347.612,413.879 364.54,413.879 						"/>
						<polygon style="fill:#454966;" points="309.117,405.034 306.929,398.306 294.169,398.306 295.816,405.034 						"/>
						<polygon style="fill:#454966;" points="329.801,413.879 327.191,406.794 312.79,406.794 315.094,413.879 						"/>
						<polygon style="fill:#454966;" points="326.542,405.034 324.063,398.306 310.03,398.306 312.218,405.034 						"/>
						<polygon style="fill:#454966;" points="311.993,413.879 309.689,406.794 296.247,406.794 297.982,413.879 						"/>
						<polygon style="fill:#454966;" points="326.516,396.546 339.645,396.546 337.808,392.549 325.044,392.549 						"/>
						<polygon style="fill:#454966;" points="277.748,398.306 278.715,405.034 292.715,405.034 291.068,398.306 						"/>
						<polygon style="fill:#454966;" points="185.807,415.639 171.024,415.639 167.929,424.039 183.075,424.039 						"/>
						<polygon style="fill:#454966;" points="330.45,415.639 315.667,415.639 318.398,424.039 333.545,424.039 						"/>
						<polygon style="fill:#454966;" points="312.565,415.639 298.413,415.639 300.469,424.039 315.297,424.039 						"/>
						<polygon style="fill:#454966;" points="295.311,415.639 206.163,415.639 204.106,424.039 297.367,424.039 						"/>
						<polygon style="fill:#454966;" points="164.827,424.039 167.923,415.639 153.052,415.639 149.191,424.039 						"/>
						<polygon style="fill:#454966;" points="203.061,415.639 188.908,415.639 186.177,424.039 201.005,424.039 						"/>
						<polygon style="fill:#454966;" points="342.747,396.546 354.747,396.546 352.489,392.549 340.909,392.549 						"/>
						<polygon style="fill:#454966;" points="149.951,415.639 134.935,415.639 130.189,424.039 146.09,424.039 						"/>
						<polygon style="fill:#454966;" points="158.727,396.546 160.565,392.549 147.98,392.549 145.722,396.546 						"/>
						<polygon style="fill:#454966;" points="348.421,415.639 333.551,415.639 336.646,424.039 352.283,424.039 						"/>
						<polygon style="fill:#454966;" points="365.534,415.639 351.523,415.639 355.384,424.039 370.28,424.039 						"/>
						<polygon style="fill:#454966;" points="171.673,413.879 186.379,413.879 188.683,406.794 174.283,406.794 						"/>
						<polygon style="fill:#454966;" points="207.304,398.306 194.545,398.306 192.357,405.034 205.657,405.034 						"/>
						<polygon style="fill:#454966;" points="223.523,398.306 210.406,398.306 208.759,405.034 222.4,405.034 						"/>
						<polygon style="fill:#454966;" points="222.106,406.794 208.328,406.794 206.594,413.879 220.922,413.879 						"/>
						<polygon style="fill:#454966;" points="191.444,398.306 177.41,398.306 174.931,405.034 189.256,405.034 						"/>
						<polygon style="fill:#454966;" points="205.226,406.794 191.785,406.794 189.481,413.879 203.492,413.879 						"/>
						<polygon style="fill:#454966;" points="140.926,405.034 154.826,405.034 157.918,398.306 144.728,398.306 						"/>
						<polygon style="fill:#454966;" points="161.184,406.794 157.118,406.794 139.932,406.794 135.929,413.879 153.861,413.879 
							157.927,413.879 168.571,413.879 171.181,406.794 						"/>
						<polygon style="fill:#454966;" points="171.83,405.034 174.309,398.306 161.02,398.306 157.927,405.034 						"/>
						<polygon style="fill:#454966;" points="195.117,396.546 207.735,396.546 208.714,392.549 196.417,392.549 						"/>
						<polygon style="fill:#454966;" points="161.829,396.546 174.957,396.546 176.43,392.549 163.666,392.549 						"/>
						<polygon style="fill:#454966;" points="178.059,396.546 192.016,396.546 193.316,392.549 179.531,392.549 						"/>
					</g>
					<path style="fill:#969DA8;" d="M281.497,446.522h-62.526c-1.68,0-3.177-1.058-3.739-2.641l-0.389-1.097h70.783l-0.389,1.097
						C284.675,445.465,283.177,446.522,281.497,446.522z"/>
				</g>
				<g>
					<path style="fill:#D9E5F1;" d="M314.618,303.894c-0.517-26.377-4.137-31.031-4.137-31.031
						c-10.602-15.774-47.475-15.016-47.475-15.016l-12.772-0.006l-12.772,0.006c0,0-36.872-0.758-47.475,15.016
						c0,0-3.62,4.655-4.137,31.031c-0.517,26.376,0,79.13,0,79.13h64.384h64.384C314.618,383.023,315.136,330.27,314.618,303.894z"
						/>
					<path style="fill:#55BCD9;" d="M272.941,258.235c-5.84-0.469-9.934-0.389-9.934-0.389l-12.772-0.006l-12.772,0.006
						c0,0-4.094-0.081-9.934,0.389c-0.917,17.252-3.303,92.681,22.706,124.788C276.244,350.916,273.858,275.487,272.941,258.235z"/>
					<g>
						<path style="fill:#F2EBEB;" d="M272.941,258.235c0,0,12.078,9.153,16.69,26.903l-8.345,9.142c0,0,5.578,7.685,5.885,11.067
							c0.307,3.382-11.468,66.204-36.937,77.677C276.244,350.916,273.858,275.487,272.941,258.235z"/>
					</g>
					<rect x="237.463" y="240.121" style="fill:#CA7975;" width="25.544" height="29.088"/>
					<path style="fill:#CA7975;" d="M210.632,204.179c1.874-4.629,6.944-1.102,6.944-1.102s1.97,11.84,3.851,17.33
						C211.293,217.515,208.758,208.808,210.632,204.179z"/>
					<path style="fill:#B06A75;" d="M220.721,218.087c-1.161-4.214-2.256-9.994-2.796-13.003c-1.135-0.575-3.48-1.367-4.515,1.189
						C212.065,209.598,213.798,215.744,220.721,218.087z"/>
					<path style="fill:#834252;" d="M219.445,212.133c0,0-7.507-6.262-6.333-24.344c1.174-18.082,31.702-43.444,58.943-18.787
						l2.583,3.523c0,0,8.219-3.288,11.037,2.114c2.818,5.401,3.472,33.316-6.6,41.903
						C269.002,225.127,219.445,212.133,219.445,212.133z"/>
					<path style="fill:#DF9781;" d="M218.513,203.448c0,0,0.676,40.096,30.402,45.73c0.513,0.097,1.055,0.097,1.568,0
						c20.155-3.821,26.955-23.485,29.244-35.75v-1.599c-1.208-1.262-1.661-2.692-2.203-4.353c-1.668-5.116-1.73-10.597-1.777-15.979
						c-1.547,2.982-4.889,4.87-8.117,5.802c-3.228,0.933-6.642,0.948-10.001,0.87c1.064-0.387,1.55-1.486,1.77-2.596
						c0.22-1.111,0.334-2.323,1.085-3.171c-8.459,4.622-18.346,5.553-27.984,5.739c1.64-0.973,2.941-2.588,3.428-4.432
						c-5.221,3.362-11.646,3.656-17.854,3.832C217.883,199.028,218.412,201.954,218.513,203.448z"/>
					<path style="fill:#CA7975;" d="M288.861,204.179c-1.874-4.629-6.944-1.102-6.944-1.102s-1.97,11.84-3.851,17.33
						C288.2,217.515,290.735,208.808,288.861,204.179z"/>
					<path style="fill:#B06A75;" d="M278.692,218.372c7.276-2.405,9.1-8.831,7.696-12.3c-1.106-2.732-3.651-1.78-4.785-1.183
						C281.064,207.903,279.908,214.045,278.692,218.372z"/>
					<path style="fill:#834252;" d="M252.498,211.714c-2.339-0.761-4.917-0.762-7.258,0l-0.611-1.231
						c2.736-0.891,5.745-0.889,8.479,0L252.498,211.714z"/>
					<path style="fill:#CA6866;" d="M258.537,232.452c0.711-0.02,1.534,0.014,1.969,0.577c0.33,0.427,0.317,1.026,0.205,1.553
						c-0.435,2.042-2.118,3.648-4.032,4.482c-1.914,0.833-4.046,1.002-6.133,1.046c-1.948,0.041-3.927-0.021-5.793-0.583
						c-0.958-0.289-1.897-0.72-2.613-1.419c-1.199-1.172-1.611-3.323-0.089-4.447C242.995,232.964,254.237,232.572,258.537,232.452z
						"/>
					<path style="fill:#AF4E5E;" d="M244.754,239.527c1.866,0.562,3.844,0.624,5.793,0.583c2.087-0.044,4.219-0.213,6.133-1.047
						c0.677-0.295,1.321-0.69,1.895-1.164c-1.02-1.137-2.529-1.778-4.047-2.07c-3.001-0.579-6.179-0.057-8.883,1.35
						c-0.707,0.368-1.832,0.92-2.506,1.66C243.645,239.131,244.193,239.359,244.754,239.527z"/>
					<path style="fill:#834252;" d="M249.631,227.402c-0.077,0-0.156-0.014-0.232-0.042c-0.974-0.363-2.639-1.121-2.843-2.111
						c-0.144-0.695,0.027-1.359,0.177-1.945c0.685-2.68,1.153-5.415,1.396-8.151c0.032-0.364,0.346-0.636,0.72-0.602
						c0.365,0.032,0.634,0.354,0.602,0.72c-0.249,2.806-0.729,5.613-1.427,8.342c-0.131,0.51-0.249,0.973-0.168,1.368
						c0.092,0.181,0.849,0.703,2.007,1.136c0.343,0.128,0.518,0.51,0.389,0.853C250.153,227.238,249.9,227.402,249.631,227.402z"/>
					<path style="fill:#9DE7E9;" d="M235.797,257.846c-1.401,0.015-3.611,0.072-6.332,0.248l10.319,19.557l10.45-8.443
						l-12.772-11.362H235.797z"/>
					<path style="fill:#9DE7E9;" d="M264.672,257.846h-1.665l-12.772,11.362l10.45,8.443l10.319-19.557
						C268.283,257.918,266.073,257.862,264.672,257.846z"/>
					<g>
						<path style="fill:#F2EBEB;" d="M227.528,258.235c0,0-12.078,9.153-16.689,26.903l8.345,9.142c0,0-5.578,7.685-5.885,11.067
							c-0.308,3.382,11.468,66.204,36.936,77.677C224.225,350.916,226.611,275.487,227.528,258.235z"/>
					</g>
					<path style="fill:#C2D8F1;" d="M248.466,382.123c-24.243-13.498-35.468-73.474-35.168-76.776
						c0.307-3.382,5.885-11.067,5.885-11.067l-8.345-9.142c4.188-16.119,14.503-25.121,16.369-26.645l0.321-0.258l0,0
						c-0.789,0.064-1.603,0.135-2.451,0.22c-1.979,1.487-13.369,10.612-17.97,26.959l9.135,9.236c0,0-6.106,7.764-6.443,11.181
						c-0.326,3.306,11.735,62.845,37.779,77.193h2.486C249.827,382.726,248.7,382.424,248.466,382.123z"/>
					<path style="fill:#C2D8F1;" d="M251.987,382.123c24.244-13.498,35.468-73.474,35.168-76.776
						c-0.307-3.382-5.885-11.067-5.885-11.067l8.345-9.142c-4.187-16.119-14.503-25.121-16.369-26.645l-0.321-0.258l0,0
						c0.79,0.064,1.603,0.135,2.451,0.22c1.979,1.487,13.369,10.612,17.97,26.959l-9.135,9.236c0,0,6.106,7.764,6.443,11.181
						c0.326,3.306-11.735,62.845-37.779,77.193h-2.486C250.626,382.726,251.753,382.424,251.987,382.123z"/>
					<g>
						<g>
							<path style="fill:#C2D8F1;" d="M202.282,320.432v62.591h9.65C207.57,377.243,202.282,320.432,202.282,320.432z"/>
						</g>
						<g>
							<path style="fill:#C2D8F1;" d="M298.187,320.432v62.591h-9.65C292.899,377.243,298.187,320.432,298.187,320.432z"/>
						</g>
					</g>
					<polygon style="fill:#FFB527;" points="239.784,277.652 246.716,288.719 253.753,288.719 260.684,277.652 250.234,269.209 
											"/>
					<path style="fill:#FF9D27;" d="M250.234,269.209l-10.45,8.443l1.421,2.268c2.528-2.665,5.168-5.225,7.948-7.626
						c0.336-0.29,0.759-0.598,1.183-0.467c0.242,0.075,0.419,0.279,0.581,0.474c2.47,2.971,4.835,6.108,7.671,8.697l2.096-3.346
						L250.234,269.209z"/>
					<path style="fill:#FF9D27;" d="M253.723,288.719h-7.007c0,0-9.409,46.827-6.349,77.308c2.721,6.408,5.974,12.19,9.868,16.997
						c3.875-4.784,7.116-10.535,9.829-16.906c0.003-0.03,0.005-0.056,0.008-0.085C263.133,335.551,253.723,288.719,253.723,288.719z
						"/>
					<path style="fill:#EE8C27;" d="M254.234,291.535c-0.332-1.796-0.537-2.817-0.537-2.817h-7.007c0,0-0.763,3.8-1.783,9.929
						c0.841-1.156,1.71-2.293,2.628-3.389c0.807-0.963,1.656-1.914,2.705-2.607C251.255,291.982,252.777,291.78,254.234,291.535z"/>
					<g>
						<path style="fill:#F2EBEB;" d="M243.318,216.531h-14.34c-1.311,0-2.373-1.063-2.373-2.373v-7.554
							c0-1.311,1.063-2.373,2.373-2.373h14.34c1.311,0,2.373,1.063,2.373,2.373v7.554
							C245.692,215.469,244.629,216.531,243.318,216.531z"/>
						<path style="fill:#F2EBEB;" d="M268.782,216.531h-14.34c-1.311,0-2.373-1.063-2.373-2.373v-7.554
							c0-1.311,1.063-2.373,2.373-2.373h14.34c1.311,0,2.373,1.063,2.373,2.373v7.554
							C271.155,215.469,270.093,216.531,268.782,216.531z"/>
					</g>
					<polygon style="fill:#55A3D4;" points="229.465,258.095 238.161,280.998 239.784,277.652 					"/>
					<polygon style="fill:#55A3D4;" points="271.003,258.095 262.308,280.998 260.684,277.652 					"/>
				</g>
				<g>
					<g>
						<rect x="153.243" y="265.746" style="fill:#F2C8C5;" width="23.332" height="27.937"/>
						<rect x="153.243" y="261.06" style="fill:#F2AFB1;" width="23.332" height="4.686"/>
						<g>
							<circle style="fill:#FFFFFF;" cx="174.557" cy="263.403" r="0.897"/>
							<circle style="fill:#FFFFFF;" cx="172.217" cy="263.403" r="0.897"/>
							<path style="fill:#FFFFFF;" d="M170.772,263.403c0,0.495-0.401,0.897-0.897,0.897c-0.495,0-0.897-0.402-0.897-0.897
								c0-0.495,0.401-0.897,0.897-0.897C170.371,262.506,170.772,262.908,170.772,263.403z"/>
						</g>
					</g>
					<g>
						<rect x="323.872" y="328.909" style="fill:#F2C8C5;" width="23.332" height="27.937"/>
						<rect x="323.872" y="324.223" style="fill:#F2AFB1;" width="23.332" height="4.686"/>
						<g>
							<circle style="fill:#FFFFFF;" cx="345.186" cy="326.566" r="0.897"/>
							<path style="fill:#FFFFFF;" d="M343.742,326.566c0,0.495-0.401,0.897-0.897,0.897c-0.495,0-0.897-0.401-0.897-0.897
								c0-0.495,0.401-0.897,0.897-0.897C343.341,325.669,343.742,326.071,343.742,326.566z"/>
							<path style="fill:#FFFFFF;" d="M341.401,326.566c0,0.495-0.401,0.897-0.897,0.897c-0.495,0-0.897-0.401-0.897-0.897
								c0-0.495,0.401-0.897,0.897-0.897C341,325.669,341.401,326.071,341.401,326.566z"/>
						</g>
					</g>
					<g>
						<rect x="155.883" y="353.108" style="fill:#F2C8C5;" width="23.332" height="12.904"/>
						<rect x="155.883" y="348.422" style="fill:#F2AFB1;" width="23.332" height="4.686"/>
						<g>
							<path style="fill:#FFFFFF;" d="M178.093,350.765c0,0.495-0.401,0.897-0.897,0.897c-0.495,0-0.897-0.402-0.897-0.897
								c0-0.495,0.401-0.897,0.897-0.897C177.692,349.868,178.093,350.27,178.093,350.765z"/>
							<circle style="fill:#FFFFFF;" cx="174.856" cy="350.765" r="0.897"/>
							<circle style="fill:#FFFFFF;" cx="172.515" cy="350.765" r="0.897"/>
						</g>
					</g>
					<g>
						<rect x="320.399" y="267.567" style="fill:#B8BDCA;" width="30.279" height="2.706"/>
						<rect x="343.485" y="275.458" style="fill:#B8BDCA;" width="7.192" height="2.706"/>
						<rect x="320.399" y="275.458" style="fill:#B8BDCA;" width="15.139" height="2.706"/>
						<rect x="320.399" y="283.348" style="fill:#B8BDCA;" width="30.279" height="2.706"/>
						<rect x="334.438" y="291.239" style="fill:#B8BDCA;" width="16.24" height="2.706"/>
						<rect x="320.399" y="291.239" style="fill:#B8BDCA;" width="6.037" height="2.706"/>
						<rect x="320.399" y="299.129" style="fill:#B8BDCA;" width="30.279" height="2.706"/>
					</g>
					<g>
						<rect x="169.122" y="306.046" style="fill:#B8BDCA;" width="8.075" height="2.706"/>
						<rect x="152.409" y="306.046" style="fill:#B8BDCA;" width="11.481" height="2.706"/>
						<rect x="152.409" y="313.712" style="fill:#B8BDCA;" width="24.787" height="2.706"/>
						<rect x="152.409" y="321.379" style="fill:#B8BDCA;" width="15.663" height="2.706"/>
						<rect x="172.221" y="321.379" style="fill:#B8BDCA;" width="4.976" height="2.706"/>
						<rect x="152.409" y="329.045" style="fill:#B8BDCA;" width="24.787" height="2.706"/>
					</g>
				</g>
			</g>
		</g>
		<g>
			<g>
				<g>
					<rect x="424.434" y="247.021" style="fill:#8FC8FF;" width="35.741" height="35.741"/>
					<polygon style="fill:#81AEFF;" points="457.953,247.021 457.953,269.298 447.52,278.711 424.434,278.711 424.434,247.021 					
						"/>
					<polygon style="fill:#BAEBFF;" points="447.044,276.679 418.488,276.679 418.488,239.07 456.096,239.07 456.096,268.508 					
						"/>
					<polygon style="fill:#ADDBFF;" points="447.044,276.678 456.096,268.508 447.044,265.98 					"/>
					<rect x="422.468" y="242.106" style="fill:#FFFFFF;" width="14.043" height="15.027"/>
					<polygon style="fill:#FF546A;" points="435.112,248.338 430.771,248.338 430.771,243.997 428.208,243.997 428.208,248.338 
						423.868,248.338 423.868,250.901 428.208,250.901 428.208,255.241 430.771,255.241 430.771,250.901 435.112,250.901 					"/>
					<g>
						<path style="fill:#5E9DA6;" d="M468.785,240.214L468.785,240.214c-1.354,0.701-3.02,0.172-3.722-1.182l-3.394-6.553
							c-0.701-1.354-0.172-3.02,1.182-3.722l0,0c1.354-0.701,3.02-0.172,3.722,1.182l3.394,6.553
							C470.668,237.846,470.139,239.513,468.785,240.214z"/>
						<path style="fill:#77DBD3;" d="M468.785,240.214L468.785,240.214c-1.354,0.701-3.02,0.172-3.722-1.182l-1.697-3.277
							l4.904-2.54l1.697,3.277C470.668,237.846,470.139,239.513,468.785,240.214z"/>
					</g>
					<g>
						<path style="fill:#FF546A;" d="M424.035,232.906L424.035,232.906c-1.354,0.701-3.02,0.172-3.722-1.182l-3.394-6.553
							c-0.701-1.354-0.172-3.02,1.182-3.722l0,0c1.354-0.701,3.02-0.172,3.722,1.182l3.394,6.553
							C425.918,230.538,425.389,232.204,424.035,232.906z"/>
						<path style="fill:#FFB527;" d="M424.035,232.906L424.035,232.906c-1.354,0.701-3.02,0.172-3.722-1.182l-1.697-3.277
							l4.904-2.54l1.697,3.277C425.918,230.538,425.389,232.204,424.035,232.906z"/>
					</g>
					<g>
						<path style="fill:#4CB5FF;" d="M410.299,274.192L410.299,274.192c-1.354,0.701-3.02,0.172-3.722-1.182l-3.394-6.553
							c-0.701-1.354-0.172-3.02,1.182-3.722l0,0c1.354-0.701,3.02-0.172,3.722,1.182l3.394,6.553
							C412.182,271.824,411.653,273.49,410.299,274.192z"/>
						<path style="fill:#FFB527;" d="M410.299,274.192L410.299,274.192c-1.354,0.701-3.02,0.172-3.722-1.182l-1.697-3.277
							l4.904-2.54l1.697,3.277C412.182,271.824,411.653,273.49,410.299,274.192z"/>
					</g>
					<g>
						<rect x="439.886" y="246.135" style="fill:#454966;" width="12.528" height="0.555"/>
						<rect x="449.181" y="250.596" style="fill:#454966;" width="3.233" height="0.555"/>
						<rect x="439.886" y="250.596" style="fill:#454966;" width="5.426" height="0.555"/>
						<rect x="439.886" y="255.058" style="fill:#454966;" width="12.528" height="0.555"/>
						<rect x="436.511" y="260.243" style="fill:#454966;" width="14.172" height="0.555"/>
						<rect x="422.339" y="260.243" style="fill:#454966;" width="7.151" height="0.555"/>
						<rect x="422.339" y="264.102" style="fill:#454966;" width="28.345" height="0.555"/>
						<rect x="439.886" y="267.961" style="fill:#454966;" width="4.944" height="0.555"/>
						<rect x="422.339" y="267.961" style="fill:#454966;" width="12.104" height="0.555"/>
						<rect x="422.339" y="271.82" style="fill:#454966;" width="22.974" height="0.555"/>
					</g>
				</g>
				<text transform="matrix(1 0 0 1 405.2754 303.874)" style="fill:#758596; font-family:'Roboto-Bold'; font-size:9.6176px;">PRESCRIPTION</text>
			</g>
			<g>
				<g>
					<path style="fill:#5B5A87;" d="M79.635,132.985H67.706c-7.034,0-12.757-5.722-12.757-12.757v-10.096h5.307v10.096
						c0,4.108,3.342,7.45,7.45,7.45h11.929c4.108,0,7.45-3.342,7.45-7.45v-10.096h5.307v10.096
						C92.392,127.262,86.669,132.985,79.635,132.985z"/>
					<g>
						<path style="fill:#454966;" d="M58.073,110.044h-1.111V92.927c0-2.303,1.873-4.176,4.176-4.176h3.964v1.111h-3.964
							c-1.691,0-3.065,1.375-3.065,3.066V110.044z"/>
						<path style="fill:#454966;" d="M90.379,110.044h-1.111V92.927c0-1.691-1.375-3.066-3.065-3.066h-3.964v-1.111h3.964
							c2.303,0,4.176,1.873,4.176,4.176V110.044z"/>
					</g>
					<g>
						<g>
							<path style="fill:#5B5A87;" d="M68.248,91.368h-3.875c-1.042,0-1.886-0.844-1.886-1.886l0,0c0-1.042,0.845-1.886,1.886-1.886
								h3.875V91.368z"/>
							<rect x="65.984" y="87.595" style="fill:#444B76;" width="2.263" height="3.772"/>
						</g>
						<g>
							<path style="fill:#5B5A87;" d="M79.093,87.595h3.875c1.042,0,1.886,0.845,1.886,1.886l0,0c0,1.042-0.845,1.886-1.886,1.886
								h-3.875V87.595z"/>
							<rect x="79.093" y="87.595" style="fill:#444B76;" width="2.263" height="3.772"/>
						</g>
					</g>
					<path style="fill:#5B5A87;" d="M74.201,141.3H73.14c-1.507,0-2.729-1.222-2.729-2.729v-5.586h6.519v5.586
						C76.93,140.078,75.708,141.3,74.201,141.3z"/>
					<rect x="70.411" y="132.985" style="fill:#444B76;" width="6.519" height="2.375"/>
					<path style="fill:#454966;" d="M92.267,176.994c-2.452,0-4.358-1.906-4.358-4.248v-16.988c0-1.611-1.311-2.922-2.922-2.922
						s-2.922,1.311-2.922,2.922v16.988c0,2.342-1.906,4.248-4.248,4.248h-0.56c-2.343,0-4.249-1.906-4.249-4.248V141.3h1.327v31.447
						c0,1.611,1.311,2.921,2.922,2.921h0.56c1.611,0,2.922-1.311,2.922-2.921v-16.988c0-2.343,1.906-4.249,4.249-4.249
						c2.343,0,4.249,1.906,4.249,4.249v16.988c0,1.611,1.31,2.921,2.921,2.921c1.721,0,3.032-1.311,3.032-2.921v-32.573
						c0-2.037,1.657-3.695,3.694-3.695h5.573v1.327h-5.573c-1.305,0-2.368,1.062-2.368,2.368v32.573
						C96.516,175.089,94.61,176.994,92.267,176.994z"/>
					<circle style="fill:#D9E5F1;" cx="109.641" cy="137.142" r="5.736"/>
					<circle style="fill:#C0C2E3;" cx="109.641" cy="137.142" r="2.338"/>
				</g>
				<text transform="matrix(1 0 0 1 51.8623 191.6958)" style="fill:#758596; font-family:'Roboto-Bold'; font-size:9.6176px;">DIAGNOSIS</text>
			</g>
			<g>
				<g>
					<g>
						<g>
							<rect x="39.928" y="247.065" style="fill:#A6446A;" width="2.747" height="5.236"/>
							<rect x="49.953" y="247.065" style="fill:#A6446A;" width="2.747" height="5.236"/>
						</g>
						<path style="fill:#FF546A;" d="M52.229,251.427H40.398c-7.293,0-13.375,5.577-14.005,12.842l-0.995,11.464h41.831
							l-0.995-11.464C65.604,257.004,59.522,251.427,52.229,251.427z"/>
						<rect x="19.563" y="275.734" style="fill:#A6446A;" width="53.5" height="3.448"/>
						
							<ellipse transform="matrix(0.7071 -0.7071 0.7071 0.7071 -173.1529 110.0897)" style="fill:#F1E4E9;" cx="46.314" cy="264.059" rx="9.799" ry="9.799"/>
						
							<ellipse transform="matrix(0.7071 -0.7071 0.7071 0.7071 -173.1529 110.0897)" style="fill:#FFFFFF;" cx="46.314" cy="264.059" rx="7.992" ry="7.992"/>
						<polygon style="fill:#FF546A;" points="52.365,262.471 47.901,262.471 47.901,258.008 44.726,258.008 44.726,262.471 
							40.263,262.471 40.263,265.647 44.726,265.647 44.726,270.11 47.901,270.11 47.901,265.647 52.365,265.647 						"/>
					</g>
					<g>
						<path style="fill:#FF546A;" d="M22.912,244.011v1.101h11.667v-4.608c0-1.447,1.173-2.62,2.62-2.62h17.992
							c1.447,0,2.62,1.173,2.62,2.62v4.608h11.667v-1.101c0-7.945-6.441-14.386-14.386-14.386H37.298
							C29.353,229.625,22.912,236.066,22.912,244.011z"/>
						<g>
							<path style="fill:#A6446A;" d="M57.811,240.505v4.608h11.667v-1.101c0-1.757-0.331-3.434-0.908-4.99H57.348
								C57.639,239.443,57.811,239.953,57.811,240.505z"/>
							<path style="fill:#A6446A;" d="M34.579,240.505c0-0.552,0.172-1.062,0.463-1.484H23.819c-0.577,1.557-0.908,3.233-0.908,4.99
								v1.101h11.667V240.505z"/>
						</g>
					</g>
				</g>
				<text transform="matrix(1 0 0 1 27.3457 299.0244)" style="fill:#758596; font-family:'Roboto-Bold'; font-size:9.6176px;">HOTLINE</text>
			</g>
			<g>
				<g>
					<rect x="375.59" y="117.427" style="fill:#FF546A;" width="35.265" height="28.437"/>
					<polygon style="fill:#A6446A;" points="410.855,145.864 438.594,145.864 438.594,133.619 432.156,131.645 427.832,121.515 
						410.855,121.515 					"/>
					<polygon style="fill:#FFFFFF;" points="429.114,133.742 412.494,133.742 412.494,123.598 425.766,123.598 					"/>
					<polygon style="fill:#6A446A;" points="395.13,141.258 381.873,141.258 379.22,145.864 397.784,145.864 					"/>
					<polygon style="fill:#6A446A;" points="428.835,141.258 415.578,141.258 412.925,145.864 431.488,145.864 					"/>
					<circle style="fill:#454966;" cx="388.502" cy="145.864" r="5.575"/>
					<path style="fill:#F2EBEB;" d="M391.643,145.864c0,1.735-1.406,3.141-3.141,3.141c-1.735,0-3.141-1.406-3.141-3.141
						c0-1.735,1.406-3.141,3.141-3.141C390.237,142.723,391.643,144.129,391.643,145.864z"/>
					<path style="fill:#454966;" d="M427.781,145.864c0,3.079-2.496,5.575-5.575,5.575c-3.079,0-5.574-2.496-5.574-5.575
						c0-3.079,2.496-5.575,5.574-5.575C425.285,140.289,427.781,142.785,427.781,145.864z"/>
					<path style="fill:#F2EBEB;" d="M425.557,145.864c0,1.85-1.5,3.35-3.35,3.35c-1.85,0-3.35-1.5-3.35-3.35s1.5-3.35,3.35-3.35
						C424.057,142.514,425.557,144.014,425.557,145.864z"/>
					<polygon style="fill:#FF746A;" points="434.556,136.953 438.594,136.953 438.594,133.619 434.556,132.381 					"/>
					<rect x="435.955" y="142.109" style="fill:#454966;" width="4.195" height="5.419"/>
					<rect x="374.152" y="142.109" style="fill:#454966;" width="4.195" height="5.419"/>
					
						<ellipse transform="matrix(0.9231 -0.3845 0.3845 0.9231 -19.4775 161.0341)" style="fill:#FFFFFF;" cx="392.987" cy="129.228" rx="7.725" ry="7.725"/>
					<polygon style="fill:#FF546A;" points="397.346,127.898 394.076,127.898 394.076,124.629 391.555,124.629 391.555,127.898 
						388.285,127.898 388.285,130.42 391.555,130.42 391.555,133.689 394.076,133.689 394.076,130.42 397.346,130.42 					"/>
					<rect x="414.835" y="119.586" style="fill:#6A446A;" width="7.372" height="1.917"/>
					<path style="fill:#65F5FF;" d="M417.948,116.648L417.948,116.648c-1.14,0-2.064,0.924-2.064,2.064v0.874h4.128v-0.874
						C420.012,117.572,419.088,116.648,417.948,116.648z"/>
				</g>
				<text transform="matrix(1 0 0 1 376.7793 165.9536)" style="fill:#758596; font-family:'Roboto-Bold'; font-size:9.6176px;">EMERGENCY</text>
			</g>
			<g>
				<g>
					<path style="fill:#FF546A;" d="M208.358,84.317H160.37c-1.389,0-2.514-1.126-2.514-2.514V53.66
						c0-1.389,1.126-2.514,2.514-2.514h47.988c1.389,0,2.514,1.126,2.514,2.514v28.143
						C210.872,83.191,209.747,84.317,208.358,84.317z"/>
					
						<ellipse transform="matrix(0.1608 -0.987 0.987 0.1608 87.8646 238.8027)" style="fill:#F1E4E9;" cx="184.364" cy="67.731" rx="12.789" ry="12.789"/>
					<circle style="fill:#FFFFFF;" cx="184.364" cy="67.731" r="11.118"/>
					<polygon style="fill:#FF546A;" points="191.797,65.95 186.145,65.95 186.145,60.299 182.583,60.299 182.583,65.95 
						176.931,65.95 176.931,69.513 182.583,69.513 182.583,75.164 186.145,75.164 186.145,69.513 191.797,69.513 					"/>
					<g>
						<path style="fill:#8C476A;" d="M171.475,48.455h-4.407c-0.41,0-0.741,0.332-0.741,0.741v1.949h5.89v-1.949
							C172.216,48.787,171.884,48.455,171.475,48.455z"/>
						<path style="fill:#8C476A;" d="M201.66,48.455h-4.407c-0.409,0-0.741,0.332-0.741,0.741v1.949h5.89v-1.949
							C202.402,48.787,202.07,48.455,201.66,48.455z"/>
					</g>
					<path style="fill:#454966;" d="M199.873,48.456h-0.833v-7.919c0-0.978-0.795-1.773-1.773-1.773h-25.806
						c-0.978,0-1.773,0.795-1.773,1.773v7.919h-0.833v-7.919c0-1.437,1.169-2.606,2.606-2.606h25.806
						c1.437,0,2.606,1.169,2.606,2.606V48.456z"/>
					<rect x="175.521" y="36.632" style="fill:#FF546A;" width="17.686" height="3.43"/>
				</g>
				<text transform="matrix(1 0 0 1 162.3687 103.0854)" style="fill:#758596; font-family:'Roboto-Bold'; font-size:9.6176px;">FIRST AID</text>
			</g>
			<g>
				<g>
					<g>
						<path style="fill:#C7F5FF;" d="M336.434,80.935l-14.983-20.752c-1.561-2.163-2.401-4.762-2.401-7.429V31.068h-5.89v21.685
							c0,2.667-0.84,5.266-2.402,7.429l-14.983,20.752c-1.614,2.236-0.017,5.36,2.741,5.36h35.177
							C336.451,86.295,338.049,83.171,336.434,80.935z"/>
						<path style="fill:#BCEBFF;" d="M336.434,80.935l-14.983-20.752c-1.561-2.162-2.402-4.762-2.402-7.429V31.068h-3.689v21.686
							c0,2.667,0.84,5.266,2.401,7.429l14.983,20.752c1.614,2.236,0.017,5.36-2.741,5.36h3.689
							C336.451,86.295,338.049,83.171,336.434,80.935z"/>
						<path style="fill:#CDF5FF;" d="M319.69,26.931h-7.171c-1.142,0-2.068,0.926-2.068,2.068l0,0c0,1.142,0.926,2.069,2.068,2.069
							h7.171c1.142,0,2.068-0.926,2.068-2.069l0,0C321.759,27.858,320.833,26.931,319.69,26.931z"/>
						<path style="fill:#90F5FF;" d="M295.775,80.935c-1.614,2.236-0.017,5.36,2.741,5.36h35.177c2.758,0,4.356-3.124,2.741-5.36
							l-8.824-12.221h-23.012L295.775,80.935z"/>
						<path style="fill:#77E0FF;" d="M336.7,81.364c-0.076-0.146-0.165-0.289-0.266-0.429l-8.824-12.222h-3.689l8.824,12.222
							c1.614,2.236,0.017,5.36-2.741,5.36h3.689c0.345,0,0.671-0.049,0.976-0.139c0.304-0.09,0.587-0.22,0.843-0.384
							c0.384-0.246,0.71-0.566,0.963-0.935C337.15,83.854,337.31,82.53,336.7,81.364z"/>
						<path style="fill:#76DBFF;" d="M311.372,73.466c0,1.307-1.06,2.367-2.367,2.367s-2.367-1.06-2.367-2.367
							c0-1.307,1.06-2.367,2.367-2.367S311.372,72.159,311.372,73.466z"/>
						<path style="fill:#76DBFF;" d="M327.939,80.958c0,1.307-1.06,2.367-2.367,2.367s-2.367-1.06-2.367-2.367
							c0-1.307,1.06-2.367,2.367-2.367S327.939,79.651,327.939,80.958z"/>
						<path style="fill:#76DBFF;" d="M322.237,74.851c0,0.818-0.663,1.48-1.48,1.48c-0.817,0-1.48-0.663-1.48-1.48
							c0-0.817,0.663-1.48,1.48-1.48C321.574,73.371,322.237,74.034,322.237,74.851z"/>
						<path style="fill:#76DBFF;" d="M314.332,80.474c0,0.817-0.663,1.48-1.48,1.48c-0.818,0-1.48-0.663-1.48-1.48
							c0-0.818,0.663-1.48,1.48-1.48C313.67,78.994,314.332,79.657,314.332,80.474z"/>
						<path style="fill:#76DBFF;" d="M304.868,81.955c0,1.184-0.96,2.144-2.144,2.144c-1.184,0-2.144-0.96-2.144-2.144
							c0-1.184,0.96-2.144,2.144-2.144C303.908,79.811,304.868,80.771,304.868,81.955z"/>
					</g>
					<g>
						<path style="fill:#A6446A;" d="M297.821,54.167L297.821,54.167c-1.374-0.956-1.714-2.845-0.758-4.22l3.329-4.786
							c0.956-1.374,2.845-1.714,4.22-0.758l0,0c1.374,0.956,1.714,2.845,0.758,4.22l-3.329,4.786
							C301.084,54.784,299.195,55.123,297.821,54.167z"/>
						<path style="fill:#FF546A;" d="M297.821,54.167L297.821,54.167c-1.374-0.956-1.714-2.845-0.758-4.22l1.664-2.393l4.977,3.462
							l-1.664,2.393C301.084,54.784,299.195,55.123,297.821,54.167z"/>
					</g>
					<g>
						<path style="fill:#FF546A;" d="M339.381,74.308L339.381,74.308c-1.374-0.956-1.714-2.845-0.758-4.22l3.329-4.786
							c0.956-1.374,2.845-1.714,4.22-0.758l0,0c1.374,0.956,1.714,2.845,0.758,4.22L343.6,73.55
							C342.644,74.925,340.755,75.264,339.381,74.308z"/>
						<path style="fill:#A6446A;" d="M339.381,74.308L339.381,74.308c-1.374-0.956-1.714-2.845-0.758-4.22l1.664-2.393l4.977,3.462
							L343.6,73.55C342.644,74.925,340.755,75.264,339.381,74.308z"/>
					</g>
					<g>
						<path style="fill:#FF546A;" d="M295.123,71.809c0.915,2.034,0.008,4.425-2.026,5.34c-2.034,0.915-4.425,0.008-5.34-2.025
							c-0.915-2.034-0.008-4.425,2.026-5.34C291.817,68.868,294.208,69.775,295.123,71.809z"/>
						<path style="fill:#FFB527;" d="M289.783,69.783c-2.034,0.915-2.941,3.306-2.026,5.34l7.366-3.315
							C294.208,69.775,291.817,68.868,289.783,69.783z"/>
					</g>
					<g>
						<path style="fill:#FFB527;" d="M336.723,51.668c0.915,2.034,0.008,4.425-2.026,5.34c-2.034,0.915-4.425,0.008-5.34-2.026
							c-0.915-2.034-0.008-4.425,2.026-5.34C333.417,48.727,335.808,49.634,336.723,51.668z"/>
						<path style="fill:#FF546A;" d="M331.383,49.642c-2.034,0.915-2.941,3.306-2.026,5.34l7.366-3.315
							C335.808,49.634,333.417,48.727,331.383,49.642z"/>
					</g>
				</g>
				<text transform="matrix(1 0 0 1 294.0117 103.0854)" style="fill:#758596; font-family:'Roboto-Bold'; font-size:9.6176px;">MEDICINE</text>
			</g>
		</g>
		<path style="fill:#C7476A;" d="M184.364,84.317h23.994c1.388,0,2.514-1.126,2.514-2.514V53.66c0-1.389-1.126-2.514-2.514-2.514
			h-1.597C206.762,51.146,209.234,80.025,184.364,84.317z"/>
		<path style="fill:#A9476A;" d="M208.358,84.317c1.388,0,2.514-1.126,2.514-2.514V64.546c-1.9,6.541-5.704,15.876-12.551,19.771
			H208.358z"/>
		<g>
			<polygon style="fill:#5E9DA6;" points="130.607,275.367 120.985,257.505 84.433,257.503 84.433,256.393 121.649,256.395 
				131.586,274.84 			"/>
			<polygon style="fill:#5E9DA6;" points="369.861,275.367 368.883,274.84 378.819,256.395 407.151,256.393 407.151,257.503 
				379.483,257.505 			"/>
			<g>
				<polygon style="fill:#5E9DA6;" points="200.93,196.458 166.556,139.703 131.745,139.703 131.745,138.592 167.182,138.592 
					201.88,195.883 				"/>
				<polygon style="fill:#5E9DA6;" points="299.539,196.458 298.589,195.883 333.288,138.592 362.09,138.592 362.09,139.703 
					333.913,139.703 				"/>
			</g>
			<polygon style="fill:#5E9DA6;" points="238.953,144.698 226.497,67.301 218.397,67.301 218.397,66.19 227.443,66.19 
				240.05,144.521 			"/>
			<polygon style="fill:#5E9DA6;" points="261.515,144.698 260.419,144.521 273.026,66.19 282.071,66.19 282.071,67.301 
				273.972,67.301 			"/>
		</g>
	</g>
</g>
</svg>
